<svg xmlns="http://www.w3.org/2000/svg" viewBox="0 0 512 512" width="512" height="512">
  <g fill="none" stroke="#fff" stroke-width="13" stroke-linejoin="round">
    <path d="M228 84 H418 a28 28 0 0 1 28 28 V204 a28 28 0 0 1 -28 28 H400 l0 44 l-44 -44 H228 a28 28 0 0 1 -28 -28 V112 a28 28 0 0 1 28 -28 Z"/>
    <path d="M94 256 H284 a28 28 0 0 1 28 28 V376 a28 28 0 0 1 -28 28 H156 l-44 44 l0 -44 H94 a28 28 0 0 1 -28 -28 V284 a28 28 0 0 1 28 -28 Z"/>
  </g>
  <text x="323" y="186" text-anchor="middle" font-family="Verdana,'DejaVu Sans',sans-serif" font-size="78" font-weight="bold" fill="#fff">DE</text>
  <text x="189" y="358" text-anchor="middle" font-family="Verdana,'DejaVu Sans',sans-serif" font-size="78" font-weight="bold" fill="#fff">EN</text>
</svg>
